<svg width="140" height="42" viewBox="0 0 140 42" fill="none" xmlns="http://www.w3.org/2000/svg">
<path d="M40.8031 14.724L31.1423 4.65258C28.8858 2.27968 25.8515 0.924019 22.6742 0.869202C19.497 0.924151 16.4628 2.2798 14.2065 4.65258L4.5457 14.724C3.42007 15.8881 2.52547 17.2793 1.91468 18.8157C1.30389 20.3521 0.989254 22.0026 0.989258 23.67C0.989254 25.3373 1.30389 26.9879 1.91468 28.5243C2.52547 30.0607 3.42007 31.4519 4.5457 32.616L5.76456 33.8886C7.93673 36.1521 19.2459 41.3215 20.2621 41.7564V22.2035C20.252 21.9049 20.1583 21.6161 19.9931 21.3741C19.8278 21.132 19.5983 20.9476 19.3339 20.8443L13.3098 18.3458C12.7904 18.8102 12.1328 19.0647 11.4535 19.0639C11.0737 19.0639 10.6976 18.9845 10.3467 18.8304C9.9958 18.6762 9.67693 18.4503 9.40839 18.1654C9.13985 17.8806 8.92691 17.5425 8.7816 17.1703C8.6363 16.7982 8.56155 16.3993 8.56161 15.9965C8.56174 15.1833 8.86643 14.4033 9.40875 13.8283C9.95106 13.2533 10.6866 12.9302 11.4535 12.9302C12.1588 12.9304 12.8397 13.2041 13.3677 13.6999C13.8958 14.1956 14.2346 14.8792 14.3202 15.6216L20.1861 18.0529C20.9803 18.3798 21.8229 18.5546 22.6746 18.5694C23.5265 18.5582 24.3694 18.3836 25.1627 18.0539L31.0286 15.6236C31.1151 14.8816 31.4541 14.1986 31.982 13.7029C32.5099 13.2072 33.1902 12.933 33.8953 12.9318C34.2751 12.9317 34.6513 13.011 35.0022 13.1651C35.3531 13.3193 35.672 13.5452 35.9405 13.8301C36.2091 14.1149 36.422 14.4531 36.5673 14.8253C36.7126 15.1974 36.7873 15.5963 36.7872 15.9991C36.7872 16.4018 36.7124 16.8006 36.5671 17.1726C36.4217 17.5447 36.2087 17.8828 35.9402 18.1675C35.6716 18.4522 35.3528 18.6781 35.002 18.8321C34.6511 18.9862 34.275 19.0655 33.8953 19.0654C33.2157 19.0674 32.5578 18.8128 32.039 18.3473L26.0086 20.8453C25.7437 20.9478 25.5137 21.132 25.3483 21.3742C25.1829 21.6165 25.0896 21.9056 25.0805 22.2045V41.7569C26.0962 41.3214 37.4058 36.1521 39.578 33.8891L40.7968 32.6165C41.9236 31.4532 42.8192 30.0624 43.431 28.5261C44.0428 26.9898 44.3584 25.3392 44.3591 23.6715C44.3596 22.0039 44.0452 20.353 43.4345 18.8163C42.8237 17.2796 41.929 15.8881 40.8031 14.724ZM22.6751 14.2551C21.7493 14.2542 20.8617 13.8638 20.207 13.1696C19.5523 12.4754 19.184 11.5341 19.183 10.5523C19.184 9.57049 19.5523 8.62921 20.207 7.93502C20.8617 7.24082 21.7493 6.85041 22.6751 6.84945C23.6009 6.85041 24.4884 7.24084 25.1431 7.93505C25.7977 8.62926 26.1658 9.57054 26.1667 10.5523C26.1658 11.5341 25.7977 12.4753 25.1431 13.1696C24.4884 13.8638 23.6009 14.2542 22.6751 14.2551Z" fill="#7DBA28"/>
<path d="M53.7627 9.02679H56.005V22.2948H53.7627V9.02679Z" fill="#7DBA28"/>
<path d="M67.2005 10.8877H63.512V22.2948H61.2697V10.8877H57.5977V9.02679H67.2005V10.8877Z" fill="#7DBA28"/>
<path d="M71.4565 15.6611C71.4565 11.5771 73.8938 8.85449 77.5509 8.85449C80.687 8.85449 82.9617 10.836 83.2868 13.8171H81.0932C80.8514 11.9906 79.4357 10.7672 77.5513 10.7672C75.2931 10.7672 73.7821 12.7317 73.7821 15.6611C73.7821 18.5904 75.2931 20.5549 77.5513 20.5549C79.4376 20.5549 80.85 19.3142 81.0932 17.4707H83.2868C82.9617 20.4688 80.671 22.4671 77.5509 22.4671C73.8933 22.4671 71.4565 19.7445 71.4565 15.6611Z" fill="#7DBA28"/>
<path d="M94.0578 20.4339V22.2948H85.1699V9.02679H93.8629V10.8877H87.4122V14.5593H93.2782V16.4197H87.4122V20.4344L94.0578 20.4339Z" fill="#7DBA28"/>
<path d="M106.065 9.02679V22.2948H103.953L98.2167 12.7486H98.1842L98.2326 22.2948H96.1045V9.02679H98.2326L103.952 18.6073H103.984L103.936 9.02679H106.065Z" fill="#7DBA28"/>
<path d="M117.259 10.8877H113.571V22.2948H111.329V10.8877H107.657V9.02679H117.26L117.259 10.8877Z" fill="#7DBA28"/>
<path d="M127.755 20.4339V22.2948H118.867V9.02679H127.56V10.8877H121.109V14.5593H126.975V16.4197H121.109V20.4344L127.755 20.4339Z" fill="#7DBA28"/>
<path d="M134.757 16.9013H132.044V22.2948H129.802V9.02679H134.757C137.536 9.02679 139.405 10.543 139.405 12.8004C139.417 13.621 139.181 14.4241 138.73 15.0913C138.28 15.7584 137.639 16.2542 136.902 16.5053L139.859 22.2953H137.357L134.757 16.9013ZM132.044 15.144H134.871C136.204 15.144 137.096 14.2823 137.096 12.9728C137.096 11.732 136.202 10.8877 134.871 10.8877H132.044V15.144Z" fill="#7DBA28"/>
<path d="M91.6543 31.1315V32.6401H91.2544V28.533H92.9826C93.7161 28.533 94.0829 28.9776 94.0829 29.8666C94.0936 30.1915 94.0017 30.5109 93.8217 30.774C93.7238 30.8987 93.5988 30.9965 93.4576 31.059C93.3164 31.1215 93.1631 31.1469 93.0106 31.1331L91.6543 31.1315ZM91.6543 28.8864V30.7545H92.9767C93.0708 30.7601 93.1648 30.7413 93.2505 30.6997C93.3362 30.6582 93.4111 30.5951 93.4686 30.516C93.5911 30.3224 93.6506 30.0917 93.6379 29.859C93.652 29.608 93.5959 29.3582 93.4768 29.1408C93.4258 29.0586 93.3554 28.992 93.2726 28.9475C93.1898 28.9031 93.0974 28.8824 93.0048 28.8875L91.6543 28.8864Z" fill="#7DBA28"/>
<path d="M94.656 31.1373C94.6144 30.7067 94.7188 30.2744 94.9505 29.9179C95.0834 29.7943 95.2386 29.7008 95.4068 29.643C95.575 29.5853 95.7525 29.5645 95.9285 29.582C96.1045 29.5645 96.282 29.5852 96.4502 29.643C96.6184 29.7007 96.7736 29.7943 96.9065 29.9179C97.143 30.2722 97.2496 30.7057 97.2064 31.1373C97.2485 31.5745 97.1422 32.0132 96.9065 32.3747C96.7755 32.5019 96.6207 32.5986 96.4523 32.6585C96.2838 32.7184 96.1054 32.7401 95.9285 32.7224C95.7516 32.7401 95.5732 32.7183 95.4047 32.6584C95.2363 32.5986 95.0816 32.5019 94.9505 32.3747C94.7185 32.0116 94.6142 31.5736 94.656 31.1373ZM95.9285 29.9354C95.8044 29.9193 95.6784 29.9321 95.5594 29.9728C95.4404 30.0136 95.3311 30.0813 95.2393 30.1712C95.0864 30.4701 95.0226 30.811 95.056 31.1491C95.0253 31.4833 95.0891 31.8196 95.2393 32.1152C95.3286 32.2099 95.437 32.2819 95.5564 32.3258C95.6758 32.3697 95.803 32.3843 95.9285 32.3685C96.0539 32.3849 96.1812 32.3706 96.3006 32.3267C96.42 32.2828 96.5283 32.2105 96.6172 32.1152C96.7718 31.8212 96.8377 31.4841 96.8063 31.1491C96.8397 30.811 96.7759 30.4701 96.6231 30.1712C96.5303 30.0811 96.4202 30.0133 96.3004 29.9726C96.1806 29.9319 96.0539 29.9192 95.929 29.9354H95.9285Z" fill="#7DBA28"/>
<path d="M101.524 29.6646H101.93C101.678 30.6787 101.358 31.6725 100.974 32.6388H100.462C100.306 31.7812 100.098 30.9351 99.8404 30.1056C99.6403 30.9625 99.3991 31.808 99.1178 32.6388H98.6061C98.3591 31.6288 98.0548 30.6356 97.6948 29.6646H98.1229C98.4242 30.5175 98.6765 31.389 98.8784 32.2742C99.0074 31.8934 99.1444 31.4418 99.2895 30.9194C99.4378 30.3694 99.5434 29.9513 99.6063 29.6651H100.068C100.334 30.5217 100.556 31.3929 100.735 32.2747C101.049 31.4231 101.313 30.5513 101.524 29.6646Z" fill="#7DBA28"/>
<path d="M103.686 29.582C103.848 29.5646 104.011 29.587 104.163 29.6473C104.315 29.7076 104.452 29.8042 104.564 29.9297C104.778 30.3084 104.872 30.7505 104.83 31.1901H102.825C102.793 31.5196 102.869 31.8505 103.041 32.127C103.142 32.2154 103.258 32.2817 103.383 32.3222C103.508 32.3627 103.639 32.3765 103.769 32.3629C104.044 32.3605 104.317 32.3067 104.575 32.2039L104.658 32.5572C104.36 32.661 104.049 32.7167 103.736 32.7223C103.556 32.7382 103.375 32.7151 103.204 32.6543C103.033 32.5936 102.875 32.4965 102.741 32.369C102.495 32.0145 102.382 31.576 102.424 31.1383C102.387 30.7146 102.493 30.2908 102.724 29.9425C102.85 29.8125 103.002 29.7129 103.168 29.6507C103.334 29.5885 103.511 29.565 103.686 29.582ZM103.686 29.941C103.458 29.9185 103.229 29.9879 103.047 30.1353C102.898 30.3361 102.821 30.5869 102.83 30.8425H104.42C104.432 30.5893 104.37 30.3384 104.242 30.1245C104.166 30.0551 104.077 30.0031 103.982 29.9716C103.886 29.9401 103.785 29.9298 103.686 29.9415V29.941Z" fill="#7DBA28"/>
<path d="M106.68 29.582C106.777 29.5816 106.874 29.5876 106.97 29.6V29.9948C106.874 29.9795 106.777 29.9716 106.68 29.9713C106.486 29.9637 106.292 29.9986 106.111 30.0738C106.05 30.0923 105.996 30.1302 105.957 30.1825C105.918 30.2348 105.895 30.2988 105.891 30.3656V32.6388H105.53V29.6646H105.891V29.8764C105.975 29.7793 106.081 29.7072 106.199 29.6672C106.353 29.6083 106.516 29.5794 106.68 29.582Z" fill="#7DBA28"/>
<path d="M108.626 29.582C108.788 29.5646 108.951 29.587 109.103 29.6473C109.255 29.7076 109.392 29.8042 109.504 29.9297C109.718 30.3084 109.812 30.7505 109.77 31.1901H107.764C107.733 31.5195 107.809 31.8504 107.981 32.127C108.082 32.2154 108.198 32.2817 108.323 32.3222C108.448 32.3627 108.579 32.3765 108.709 32.3629C108.984 32.3605 109.257 32.3067 109.515 32.2039L109.598 32.5572C109.3 32.661 108.989 32.7167 108.676 32.7224C108.496 32.7382 108.315 32.7151 108.144 32.6543C107.973 32.5936 107.815 32.4965 107.681 32.369C107.435 32.0145 107.322 31.576 107.364 31.1383C107.327 30.7146 107.433 30.2908 107.664 29.9425C107.79 29.8125 107.942 29.7129 108.108 29.6507C108.274 29.5885 108.45 29.5651 108.626 29.582ZM108.626 29.941C108.397 29.9188 108.169 29.9882 107.986 30.1353C107.837 30.3361 107.76 30.5869 107.77 30.8425H109.359C109.372 30.5893 109.309 30.3384 109.181 30.1245C109.105 30.0551 109.017 30.003 108.922 29.9715C108.826 29.9399 108.725 29.9297 108.626 29.9415V29.941Z" fill="#7DBA28"/>
<path d="M111.67 29.5836C111.946 29.5682 112.219 29.6535 112.444 29.8252V28.389H112.805V32.4925C112.631 32.572 112.448 32.6293 112.261 32.6633C112.066 32.7031 111.869 32.7247 111.671 32.7279C111.495 32.7455 111.318 32.7248 111.15 32.667C110.982 32.6092 110.826 32.5156 110.694 32.3919C110.462 32.0328 110.358 31.5987 110.399 31.166C110.358 30.7317 110.462 30.2959 110.694 29.935C110.824 29.8073 110.978 29.7101 111.147 29.6496C111.315 29.5891 111.493 29.5666 111.67 29.5836ZM111.67 32.3591C111.933 32.3655 112.195 32.3235 112.444 32.235V30.3674C112.44 30.2998 112.417 30.2349 112.379 30.1808C112.34 30.1268 112.288 30.0861 112.227 30.0637C112.053 29.9806 111.863 29.9412 111.671 29.9489C111.547 29.9333 111.42 29.9475 111.301 29.9904C111.182 30.0332 111.073 30.1037 110.983 30.1966C110.832 30.49 110.768 30.8248 110.799 31.1573C110.773 31.494 110.837 31.8317 110.983 32.1319C111.076 32.2186 111.186 32.2838 111.304 32.3234C111.423 32.3629 111.548 32.376 111.671 32.3617L111.67 32.3591Z" fill="#7DBA28"/>
<path d="M116.372 29.5835C116.548 29.5654 116.725 29.587 116.893 29.6469C117.06 29.7069 117.214 29.8038 117.344 29.9313C117.58 30.29 117.687 30.7271 117.644 31.1623C117.685 31.5958 117.579 32.0308 117.344 32.3882C117.212 32.5121 117.058 32.6059 116.891 32.6637C116.723 32.7215 116.547 32.7421 116.372 32.7242C116.174 32.7209 115.977 32.699 115.782 32.6591C115.595 32.6251 115.412 32.5678 115.238 32.4882V28.3848H115.599V29.821C115.824 29.6493 116.097 29.5641 116.373 29.5794L116.372 29.5835ZM116.372 32.359C116.495 32.3735 116.62 32.3605 116.739 32.3209C116.857 32.2814 116.967 32.2161 117.06 32.1292C117.206 31.829 117.27 31.4913 117.244 31.1546C117.277 30.8213 117.211 30.4853 117.055 30.1939C116.966 30.1007 116.858 30.0299 116.74 29.987C116.621 29.9441 116.495 29.9302 116.371 29.9462C116.18 29.9386 115.99 29.9779 115.815 30.0611C115.755 30.0834 115.702 30.1241 115.664 30.1782C115.625 30.2322 115.603 30.2971 115.599 30.3647V32.2328C115.848 32.3207 116.11 32.3627 116.373 32.3569L116.372 32.359Z" fill="#7DBA28"/>
<path d="M119.166 32.7817C118.903 31.7144 118.557 30.6719 118.132 29.6646H118.538C118.885 30.5199 119.175 31.4001 119.405 32.2985C119.749 31.44 120.044 30.5604 120.289 29.6646H120.683C120.384 30.675 120.036 31.668 119.638 32.6396C119.501 32.9853 119.333 33.3625 119.133 33.7711H118.71C118.862 33.4729 119.014 33.1431 119.166 32.7817Z" fill="#7DBA28"/>
<path d="M122.973 32.6401V28.533H123.373V32.6401H122.973Z" fill="#7DBA28"/>
<path d="M127.052 28.8869H125.712V32.6401H125.307V28.8869H123.962V28.5335H127.052V28.8869Z" fill="#7DBA28"/>
<path d="M129.635 31.1315V32.6401H129.235V28.533H130.963C131.697 28.533 132.063 28.9776 132.063 29.8666C132.074 30.1915 131.982 30.5109 131.802 30.774C131.704 30.8987 131.579 30.9965 131.438 31.059C131.297 31.1215 131.144 31.1469 130.991 31.1331L129.635 31.1315ZM129.635 28.8864V30.7545H130.957C131.051 30.7601 131.145 30.7413 131.231 30.6997C131.317 30.6582 131.392 30.5951 131.449 30.516C131.571 30.3224 131.631 30.0917 131.618 29.859C131.632 29.608 131.576 29.3583 131.457 29.1408C131.406 29.0585 131.336 28.9918 131.253 28.9474C131.17 28.9029 131.078 28.8823 130.985 28.8875L129.635 28.8864Z" fill="#7DBA28"/>
<path d="M134.875 30.7358V32.4855C134.517 32.6501 134.13 32.7306 133.741 32.7213C133.434 32.7512 133.126 32.6747 132.863 32.5034C132.767 32.402 132.693 32.279 132.648 32.1433C132.603 32.0076 132.587 31.8629 132.602 31.7198C132.584 31.5746 132.601 31.427 132.651 31.2903C132.7 31.1536 132.781 31.032 132.885 30.9363C133.137 30.7852 133.425 30.7155 133.713 30.7358C133.982 30.737 134.251 30.7687 134.513 30.8302C134.544 30.5788 134.485 30.3243 134.346 30.1174C134.152 29.9796 133.918 29.9192 133.686 29.9466C133.411 29.9357 133.137 29.9838 132.88 30.0881L132.775 29.7292C133.078 29.6342 133.392 29.5848 133.708 29.5825C134.026 29.551 134.345 29.6386 134.608 29.8302C134.71 29.953 134.786 30.0971 134.832 30.2531C134.878 30.409 134.892 30.5735 134.875 30.7358ZM134.513 32.2378V31.1537C134.265 31.0963 134.012 31.0707 133.758 31.0773C133.552 31.0576 133.345 31.0962 133.158 31.1891C133.058 31.2599 133.008 31.4269 133.008 31.6901C133.008 31.9807 133.056 32.1672 133.153 32.2496C133.339 32.3532 133.549 32.3964 133.758 32.3737C134.016 32.3738 134.272 32.3277 134.515 32.2373L134.513 32.2378Z" fill="#7DBA28"/>
<path d="M136.87 29.582C136.967 29.5816 137.064 29.5876 137.16 29.6V29.9948C137.064 29.9795 136.967 29.9716 136.87 29.9712C136.675 29.9636 136.481 29.9986 136.3 30.0738C136.24 30.0924 136.186 30.1304 136.147 30.1827C136.108 30.235 136.085 30.2989 136.081 30.3656V32.6388H135.72V29.6646H136.081V29.8764C136.165 29.7792 136.271 29.7071 136.39 29.6672C136.544 29.608 136.707 29.579 136.87 29.5815L136.87 29.582Z" fill="#7DBA28"/>
<path d="M139.871 32.64H139.404C138.656 31.6621 138.183 31.1377 137.987 31.0669V32.64H137.625V28.3858H137.987V31.0669C138.466 30.6438 138.907 30.1743 139.304 29.6645H139.771C139.383 30.1552 138.953 30.607 138.487 31.014C139.006 31.4971 139.471 32.0428 139.871 32.64Z" fill="#7DBA28"/>
</svg>
